<svg xmlns="http://www.w3.org/2000/svg" viewBox="0 0 300 300"><circle cx="150" cy="150" r="114.5" fill="gray"/><path d="M245.14 252.14c-1.79 0-3.58-.68-4.95-2.05a7.007 7.007 0 010-9.9c23.92-23.92 37.09-55.95 37.09-90.19s-13.17-66.27-37.09-90.19S184.24 22.72 150 22.72 83.73 35.89 59.81 59.81s-37.06 55.87-37.1 90.06c-.03 34.19 13.08 66.2 36.91 90.14a6.998 6.998 0 01-.02 9.9 6.998 6.998 0 01-9.9-.02C23.23 223.31 8.67 187.78 8.71 149.86c.04-37.92 14.67-73.42 41.2-99.95S112.02 8.72 150 8.72s73.52 14.63 100.09 41.19c26.56 26.56 41.19 62.11 41.19 100.09s-14.63 73.52-41.19 100.09a6.973 6.973 0 01-4.95 2.05z" fill="#00f"/></svg>